<svg width="25" height="31" viewBox="0 0 25 31" fill="none" xmlns="http://www.w3.org/2000/svg">
<g clip-path="url(#clip0_964_17688)">
<path d="M12.4999 18.2499C15.8089 18.2499 18.4999 15.5589 18.4999 12.2499C18.4999 8.94097 15.8089 6.25 12.4999 6.25C9.19097 6.25 6.5 8.94097 6.5 12.2499C6.5 15.5589 9.19097 18.2499 12.4999 18.2499ZM12.4999 9.24997C14.1544 9.24997 15.4999 10.5955 15.4999 12.2499C15.4999 13.9044 14.1544 15.2499 12.4999 15.2499C10.8455 15.2499 9.49997 13.9044 9.49997 12.2499C9.49997 10.5955 10.8455 9.24997 12.4999 9.24997Z" fill="#8EC2F2"/>
<path d="M11.63 29.9707C11.8839 30.152 12.188 30.2494 12.5 30.2494C12.812 30.2494 13.1161 30.152 13.37 29.9707C13.826 29.6482 24.5434 21.9098 24.4999 12.2499C24.4999 5.63344 19.1164 0.25 12.5 0.25C5.88357 0.25 0.500132 5.63344 0.500132 12.2424C0.456633 21.9098 11.174 29.6482 11.63 29.9707ZM12.5 3.24997C17.4634 3.24997 21.4999 7.28642 21.4999 12.2574C21.5314 18.9143 14.918 24.8917 12.5 26.8522C10.0835 24.8902 3.4686 18.9113 3.5001 12.2499C3.5001 7.28642 7.53655 3.24997 12.5 3.24997Z" fill="#8EC2F2"/>
</g>
<defs>
<clipPath id="clip0_964_17688">
<rect width="24" height="29.9997" fill="white" transform="translate(0.5 0.25)"/>
</clipPath>
</defs>
</svg>
