<svg width="24" height="26" viewBox="0 0 24 26" fill="none" xmlns="http://www.w3.org/2000/svg">
<path d="M23.71 0.466214C23.575 0.326514 23.4045 0.229791 23.2185 0.187417C23.0325 0.145044 22.8388 0.158781 22.66 0.227014L0.660001 8.54701C0.470269 8.62186 0.306921 8.75496 0.191652 8.92865C0.0763829 9.10233 0.0146484 9.30837 0.0146484 9.51941C0.0146484 9.73045 0.0763829 9.9365 0.191652 10.1102C0.306921 10.2839 0.470269 10.417 0.660001 10.4918L10.26 14.4854L14.1 24.4694C14.1721 24.6581 14.2958 24.8206 14.4557 24.9371C14.6157 25.0535 14.8049 25.1187 15 25.1246C15.2021 25.1203 15.3982 25.0524 15.5624 24.9299C15.7266 24.8073 15.8513 24.6359 15.92 24.4382L23.92 1.55821C23.9881 1.37421 24.0046 1.17386 23.9674 0.980518C23.9302 0.787175 23.8409 0.608808 23.71 0.466214ZM15 21.1726L12.21 13.8926L17 8.91101L15.59 7.44461L10.76 12.4678L3.8 9.52461L21.33 2.94141L15 21.1726Z" fill="#8EC2F2"/>
</svg>
